<svg width="30" height="35" viewBox="0 0 30 35" fill="none" xmlns="http://www.w3.org/2000/svg">
<path d="M4.28544 3.75H6.41758C7.54667 3.75 8.4727 4.7705 8.55455 6.06351L8.56044 6.25V28.75C8.56044 30.0673 7.68572 31.1476 6.57743 31.2431L6.41758 31.25H4.28544C3.15634 31.25 2.23031 30.2295 2.14846 28.9365L2.14258 28.75V6.25C2.14258 4.93273 3.01729 3.85236 4.12559 3.75686L4.28544 3.75ZM11.7801 3.75H13.9176C15.0467 3.75 15.9727 4.7705 16.0546 6.06351L16.0604 6.25V28.75C16.0604 30.0673 15.1857 31.1476 14.0774 31.2431L13.9176 31.25H11.7801C10.65 31.25 9.72486 30.2295 9.6431 28.9365L9.63722 28.75V6.25C9.63722 4.93273 10.511 3.85236 11.6201 3.75686L11.7801 3.75ZM21.5682 6.283C22.4718 6.283 23.2994 6.95511 23.5964 7.98252L23.6457 8.17925L27.7814 27.533C28.0555 28.8109 27.4315 30.1059 26.3752 30.5123L26.2214 30.5643L24.1182 31.1755C23.9447 31.2255 23.77 31.2505 23.5986 31.2505C22.694 31.2505 21.8673 30.5773 21.5704 29.5508L21.5211 29.3542L17.3843 10.0005C17.1112 8.72022 17.7353 7.42626 18.7916 7.021L18.9454 6.96925L21.0486 6.358C21.2222 6.308 21.3968 6.283 21.5682 6.283ZM6.41758 5.625H4.28544C4.02353 5.625 3.80395 5.84722 3.75839 6.13803L3.74972 6.25V28.75C3.74972 29.0556 3.9402 29.3117 4.18946 29.3649L4.28544 29.375H6.41758C6.68044 29.375 6.89927 29.1528 6.94466 28.862L6.95329 28.75V6.25C6.95329 5.94444 6.76366 5.68827 6.51383 5.63512L6.41758 5.625ZM13.9176 5.625H11.7801C11.5172 5.625 11.2984 5.84722 11.253 6.13803L11.2444 6.25V28.75C11.2444 29.0556 11.434 29.3117 11.6838 29.3649L11.7801 29.375H13.9176C14.1804 29.375 14.3993 29.1528 14.4447 28.862L14.4533 28.75V6.25C14.4533 5.94444 14.2637 5.68827 14.0138 5.63512L13.9176 5.625ZM21.5682 8.158L21.5023 8.16269L21.4364 8.17675L19.3343 8.788C19.0791 8.86244 18.9127 9.13936 18.9293 9.43438L18.9443 9.5455L23.08 28.9005C23.1497 29.2255 23.3982 29.3755 23.5986 29.3755L23.6643 29.3707L23.7293 29.3555L25.8325 28.7442C26.0877 28.6698 26.2541 28.3939 26.2375 28.0982L26.2225 27.9868L22.0857 8.63175C22.0161 8.3055 21.7686 8.158 21.5682 8.158Z" fill="#0D0501"/>
</svg>
